<svg viewBox="0 0 500 500" xmlns="http://www.w3.org/2000/svg">
  <defs></defs>
  <path style="fill: none; stroke-linejoin: round; stroke-width: 5px; stroke: rgb(55, 107, 96);" d="M 33.059 100.35 C 33.981 99.838 41.249 120.912 36.988 128.126 C -2.983 183.618 22.54 280.514 53.62 301.752 C 67.563 313.618 147.898 348.144 151.925 329.8 L 179.908 363.428 C 208.465 338.851 213.896 403.945 242.994 404.202 C 233.322 378.047 275.082 348.573 325.472 362.43 C 324.845 364.56 311.583 356.727 313.272 350.985 C 311.502 347.003 376.838 343.287 391.583 356.906 C 396.45 361.401 395.905 400.847 418.19 396.868 C 428.128 395.992 426.161 384.185 421.778 379.593 C 421.778 379.598 400.097 337.837 400.097 329.554 C 393.397 316.891 438.017 279.127 447.82 267.525 C 432.871 269.164 438.711 202.799 477.082 188.533 C 460.224 189.83 471.279 148.706 490.681 147.214 C 491.997 140.454 481.217 112.884 471.319 119.513 C 470.7 127.421 461.98 144.666 454.43 151.084 C 445.482 158.957 374.943 217.452 369.861 209.546 C 379.982 196.982 373.143 159.864 352.983 165.446 C 333.512 169.477 328.747 211.598 333 213.561 C 324.331 214.052 317.094 162.189 343.446 160.697 C 343.573 160.729 287.832 134.255 268.395 134.029 C 247.097 138.547 58.006 116.63 33.059 100.35 Z"></path>
  <path style="fill: none; stroke-linejoin: round; stroke-width: 4px; stroke: rgb(55, 107, 96);" d="M 134.194 145.525 L 115.396 79.677 C 111.289 66.82 114.372 44.486 138.135 44.218 C 161.406 44.294 165.267 69.936 160.384 80.575 L 134.194 145.525 Z"></path>
  <ellipse style="fill: none; stroke-linejoin: round; stroke-width: 4px; stroke: rgb(55, 107, 96);" cx="138" cy="69.5" rx="8" ry="8"></ellipse>
  <path style="fill: none; stroke-linejoin: round; stroke-width: 4px; stroke: rgb(55, 107, 96);" d="M 347.436 324.724 L 328.638 258.876 C 324.531 246.019 327.614 223.685 351.377 223.417 C 374.648 223.493 378.509 249.135 373.626 259.774 L 347.436 324.724 Z"></path>
  <ellipse style="fill: none; stroke-linejoin: round; stroke-width: 4px; stroke: rgb(55, 107, 96);" cx="351.242" cy="248.699" rx="8" ry="8"></ellipse>
  <path style="fill: none; stroke-linejoin: round; stroke-width: 4px; stroke: rgb(55, 107, 96);" d="M 227.095 336.347 L 208.297 270.499 C 204.19 257.642 207.273 235.308 231.036 235.04 C 254.307 235.116 258.168 260.758 253.285 271.397 L 227.095 336.347 Z"></path>
  <ellipse style="fill: none; stroke-linejoin: round; stroke-width: 4px; stroke: rgb(55, 107, 96);" cx="230.901" cy="260.322" rx="8" ry="8"></ellipse>
  <path style="fill: none; stroke-linejoin: round; stroke-width: 4px; stroke: rgb(55, 107, 96);" d="M 83.838 267.388 L 65.04 201.54 C 60.933 188.683 64.016 166.349 87.779 166.081 C 111.05 166.157 114.911 191.799 110.028 202.438 L 83.838 267.388 Z"></path>
  <ellipse style="fill: none; stroke-linejoin: round; stroke-width: 4px; stroke: rgb(55, 107, 96);" cx="87.644" cy="191.363" rx="8" ry="8"></ellipse>
  <path style="fill: none; stroke-linejoin: round; stroke-width: 4px; stroke: rgb(55, 107, 96);" d="M 433.699 172.198 L 414.901 106.35 C 410.794 93.493 413.877 71.159 437.64 70.891 C 460.911 70.967 464.772 96.609 459.889 107.248 L 433.699 172.198 Z"></path>
  <ellipse style="fill: none; stroke-linejoin: round; stroke-width: 4px; stroke: rgb(55, 107, 96);" cx="437.505" cy="96.173" rx="8" ry="8"></ellipse>
  <path style="fill: none; stroke-linejoin: round; stroke-width: 4px; stroke: rgb(55, 107, 96);" d="M 299.008 177.739 L 280.21 111.891 C 276.103 99.034 279.186 76.7 302.949 76.432 C 326.22 76.508 330.081 102.15 325.198 112.789 L 299.008 177.739 Z"></path>
  <ellipse style="fill: none; stroke-linejoin: round; stroke-width: 4px; stroke: rgb(55, 107, 96);" cx="302.814" cy="101.714" rx="8" ry="8"></ellipse>
</svg>