<svg viewBox="0 0 500 500" xmlns="http://www.w3.org/2000/svg" xmlns:bx="https://boxy-svg.com">
  <defs></defs>
  <rect x="97.564" y="269.823" width="314.258" height="203.497" style="fill: none; stroke-linecap: round; stroke-linejoin: round; stroke-width: 5px; stroke: rgb(71, 117, 104);"></rect>
  <rect x="242.245" y="269.768" width="28.329" height="45.183" style="fill: none; stroke-linecap: round; stroke-linejoin: round; stroke-width: 5px; stroke: rgb(71, 117, 104);"></rect>
  <line style="fill: none; stroke-linecap: round; stroke-linejoin: round; stroke-width: 5px; stroke: rgb(71, 117, 104);" x1="97.705" y1="269.636" x2="32.597" y2="344.927"></line>
  <line style="fill: none; stroke-linecap: round; stroke-linejoin: round; stroke-width: 5px; stroke: rgb(71, 117, 104);" x1="412.321" y1="270.11" x2="480.462" y2="344.924"></line>
  <rect style="fill: none; stroke-linejoin: round; stroke-linecap: round; stroke-width: 3px; stroke: rgb(71, 117, 104);" x="109.628" y="168.879" width="52.837" height="37.734" rx="5" ry="5"></rect>
  <path style="fill: none; stroke-width: 3px; stroke: rgb(71, 117, 104);" d="M 119.264 151.92 H 152.732 A 3.9 3.9 0 0 1 156.632 155.82 V 162.457 H 115.364 V 155.82 A 3.9 3.9 0 0 1 119.264 151.92 Z" bx:shape="rect 115.364 151.92 41.268 10.537 3.9 3.9 0 0 1@77faca69"></path>
  <rect x="109.308" y="182.524" width="53.263" height="23.413" style="stroke-width: 3px; stroke: rgb(71, 117, 104); fill: rgb(71, 117, 104);"></rect>
  <ellipse style="fill: none; stroke-width: 3px; stroke: rgb(71, 117, 104);" cx="213.493" cy="218.951" rx="24.743" ry="25.032"></ellipse>
  <path style="stroke-linecap: round; stroke-linejoin: round; stroke-width: 3px; fill: none; stroke: rgb(71, 117, 104);" d="M 223.765 179.492 L 215.406 205.722 L 216.987 200.362 C 223.827 204.528 241.608 199.71 245.462 191.109 C 234.921 186.11 219.968 189.441 217.196 200.13 L 223.765 179.492 Z"></path>
  <path style="fill: none; stroke-linejoin: round; stroke-linecap: round; stroke-width: 4px; stroke: rgb(71, 117, 104);" d="M 258.102 103.043 L 275.909 120.137 L 287.708 108.51 L 271.566 89.188 C 278.397 83.319 312.735 94.713 300.499 123.09 L 353.993 176.945 L 342.344 187.36 L 288.255 134.411 C 259.39 142.027 252.538 108.415 258.102 103.043 Z"></path>
  <path style="stroke-width: 4px; stroke-linejoin: round; stroke-linecap: round; fill: none; stroke: rgb(71, 117, 104);" d="M 363.054 251.579 L 362.483 220.107 L 355.314 228.856 L 346.819 220.268 L 359.879 205.353 L 369.356 205.353 C 368.839 210.386 388.152 213.737 389.021 205.272 L 397.75 205.5 L 411.419 218.834 L 400.909 226.276 L 393.678 219.734 L 394.818 251.773 L 363.054 251.579 Z"></path>
  <polyline style="fill: none; stroke-width: 4px; stroke-linejoin: round; stroke-linecap: round; stroke: rgb(71, 117, 104);" points="150.626 122.483 150.113 86.215 166.517 73.871 216.826 84.631 149.81 86.265 150.504 123.168 215.822 118.508 216.858 84.821"></polyline>
  <ellipse style="fill: none; stroke-width: 4px; stroke: rgb(71, 117, 104);" cx="164.04" cy="103.781" rx="5.681" ry="5.423"></ellipse>
  <ellipse style="fill: none; stroke-width: 4px; stroke: rgb(71, 117, 104);" cx="187.53" cy="96.796" rx="4" ry="3.995"></ellipse>
  <ellipse style="fill: none; stroke-width: 4px; stroke: rgb(71, 117, 104);" cx="203.276" cy="109.169" rx="4.041" ry="3.772"></ellipse>
  <ellipse style="fill: none; stroke-width: 4px; stroke: rgb(71, 117, 104);" cx="170.471" cy="80.599" rx="3.874" ry="0.775"></ellipse>
  <path style="stroke-linejoin: round; stroke-linecap: round; stroke-width: 3px; fill: none; stroke: rgb(71, 117, 104);" d="M 306.705 65.616 L 386.949 113.641 C 390.588 116.502 417.399 85.125 412.62 81.368 L 380.87 61.453 L 375.726 40.269 L 364.435 42.051 L 366.153 54.794 L 335.16 35.484 C 341.302 40.983 313.611 70.913 306.705 65.616 Z"></path>
  <ellipse style="stroke-linejoin: round; stroke-linecap: round; stroke-width: 3px; fill: none; stroke: rgb(71, 117, 104);" cx="320.237" cy="54.667" rx="20.964" ry="6.199" transform="matrix(0.687303, -0.726371, 0.724035, 0.689772, 61.446896, 245.700089)"></ellipse>
  <line style="fill: rgb(216, 216, 216); stroke-linecap: round; stroke: rgb(71, 117, 104);" x1="323.355" y1="68.273" x2="384.42" y2="104.751"></line>
  <line style="fill: rgb(216, 216, 216); stroke-linecap: round; stroke: rgb(71, 117, 104);" x1="339.076" y1="66.951" x2="393.725" y2="100.087"></line>
  <line style="fill: rgb(216, 216, 216); stroke-linecap: round; stroke: rgb(71, 117, 104);" x1="398.128" y1="88.143" x2="370.406" y2="73.642"></line>
  <line style="fill: rgb(216, 216, 216); stroke-linecap: round; stroke: rgb(71, 117, 104);" x1="362.731" y1="68.278" x2="338.91" y2="54.366"></line>
  <polyline style="fill: none; stroke-linecap: round; stroke: rgb(71, 117, 104);" points="371.129 50.045 375.374 66.64 394.878 78.046"></polyline>
  <line style="fill: rgb(216, 216, 216); stroke-linecap: round; stroke: rgb(71, 117, 104);" x1="339.124" y1="45.896" x2="356.835" y2="55.879"></line>
  <path style="fill: none; stroke: rgb(71, 117, 104);" d="M 331.047 39.624 C 328.758 37.479 308.087 59.804 310.323 61.884"></path>
  <path style="fill: none; stroke: rgb(71, 117, 104);" d="M 315.72 57.59 C 317.046 58.954 329.361 45.765 328.035 44.401"></path>
  <path style="fill: none; stroke: rgb(71, 117, 104);" d="M 318.946 52.508 C 319.336 52.898 323.107 49.653 322.451 48.997"></path>
  <line style="fill: rgb(216, 216, 216); stroke: rgb(71, 117, 104);" x1="123.249" y1="221.823" x2="122.616" y2="258.71"></line>
  <line style="fill: rgb(216, 216, 216); stroke: rgb(71, 117, 104);" x1="135.865" y1="260.557" x2="136.025" y2="241.789"></line>
  <line style="fill: rgb(216, 216, 216); stroke: rgb(71, 117, 104);" x1="145.832" y1="254.639" x2="146.104" y2="219.185"></line>
  <line style="fill: rgb(216, 216, 216); stroke: rgb(71, 117, 104);" x1="200.096" y1="261.983" x2="200.096" y2="250.226"></line>
  <line style="fill: rgb(216, 216, 216); stroke: rgb(71, 117, 104);" x1="210.818" y1="261.041" x2="210.931" y2="250.923"></line>
  <line style="fill: rgb(216, 216, 216); stroke: rgb(71, 117, 104);" x1="222.557" y1="264.063" x2="222.477" y2="249.965"></line>
  <line style="fill: rgb(216, 216, 216); stroke: rgb(71, 117, 104);" x1="317.151" y1="258.278" x2="316.417" y2="180.809"></line>
  <line style="fill: rgb(216, 216, 216); stroke: rgb(71, 117, 104);" x1="305.814" y1="165.481" x2="305.737" y2="249.226"></line>
  <line style="fill: rgb(216, 216, 216); stroke: rgb(71, 117, 104);" x1="296.84" y1="257.98" x2="296.894" y2="207.896"></line>
  <line style="fill: rgb(216, 216, 216); stroke: rgb(71, 117, 104);" x1="176.224" y1="253.783" x2="178.529" y2="131.235"></line>
  <line style="fill: rgb(216, 216, 216); stroke: rgb(71, 117, 104);" x1="187.247" y1="184.401" x2="187.448" y2="139.96"></line>
  <line style="fill: rgb(216, 216, 216); stroke: rgb(71, 117, 104);" x1="378.56" y1="176.296" x2="378.005" y2="123.45"></line>
  <line style="fill: rgb(216, 216, 216); stroke: rgb(71, 117, 104);" x1="368.287" y1="157.246" x2="365.892" y2="115.765"></line>
</svg>