<svg viewBox="0 0 500 500" xmlns="http://www.w3.org/2000/svg" xmlns:bx="https://boxy-svg.com">
  <defs></defs>
  <path style="fill: none; stroke-width: 5px; stroke-linecap: round; stroke: rgb(55, 107, 96);" d="M 391.429 371.366 H 481.536 A 5 5 0 0 1 486.536 376.366 V 411.647 A 2 2 0 0 1 484.536 413.647 H 388.429 A 2 2 0 0 1 386.429 411.647 V 376.366 A 5 5 0 0 1 391.429 371.366 Z" bx:shape="rect 386.429 371.366 100.107 42.281 5 5 2 2 1@a772ed0a"></path>
  <path style="fill: none; stroke-width: 5px; stroke: rgb(55, 107, 96);" d="M 241.789 363.311 H 312.158 A 25 25 0 0 1 337.158 388.311 V 430.277 H 241.789 A 5 5 0 0 1 236.789 425.277 V 368.311 A 5 5 0 0 1 241.789 363.311 Z" bx:shape="rect 236.789 363.311 100.369 66.966 5 25 0 5 1@f3a61596"></path>
  <path style="fill: none; stroke-width: 5px; stroke: rgb(55, 107, 96);" d="M 337.311 413.585 H 414.097 V 428.886 A 2 2 0 0 1 412.097 430.886 H 337.311 V 413.585 Z" bx:shape="rect 337.311 413.585 76.786 17.301 0 0 2 0 1@e1dd8777"></path>
  <rect x="335.618" y="430.96" width="55.335" height="11.571" style="stroke-linecap: round; stroke-width: 2px; fill: none; stroke-linejoin: round; stroke: rgb(55, 107, 96);"></rect>
  <rect style="fill: none; stroke-width: 5px; stroke: rgb(55, 107, 96);" x="322.951" y="442.419" width="78.312" height="20.368" rx="2" ry="2"></rect>
  <path style="stroke-width: 5px; stroke: rgb(55, 107, 96); fill: rgb(55, 107, 96);" d="M 354.522 450.559 H 401.311 V 458.759 H 351.522 V 453.559 A 3 3 0 0 1 354.522 450.559 Z" bx:shape="rect 351.522 450.559 49.789 8.2 3 0 0 0 1@13ac5faf"></path>
  <ellipse style="fill: none; stroke-width: 5px; stroke: rgb(55, 107, 96);" cx="445.686" cy="455.667" rx="30.456" ry="32.014"></ellipse>
  <ellipse style="fill: none; stroke-width: 5px; stroke: rgb(55, 107, 96);" cx="279.567" cy="460.394" rx="23.568" ry="22.887"></ellipse>
  <polygon style="fill: none; stroke-width: 5px; stroke-linecap: round; stroke-linejoin: round; stroke: rgb(55, 107, 96);" points="396.724 371.127 397.063 356.849 444.448 356.196 444.71 317.653 461.871 317.505 462.286 370.965"></polygon>
  <line style="stroke-linecap: round; stroke-width: 2px; fill: none; stroke-linejoin: round; stroke: rgb(55, 107, 96);" x1="236.853" y1="395.978" x2="270.859" y2="395.966"></line>
  <line style="stroke-linecap: round; stroke-width: 2px; fill: none; stroke-linejoin: round; stroke: rgb(55, 107, 96);" x1="237.151" y1="404.459" x2="278.072" y2="404.23"></line>
  <line style="stroke-linecap: round; stroke-width: 2px; fill: none; stroke-linejoin: round; stroke: rgb(55, 107, 96);" x1="237.561" y1="412.98" x2="287.687" y2="413.181"></line>
  <line style="stroke-linecap: round; stroke-width: 2px; fill: none; stroke-linejoin: round; stroke: rgb(55, 107, 96);" x1="237.464" y1="421.417" x2="278.732" y2="421.412"></line>
  <polyline style="fill: none; stroke-linejoin: round; stroke-width: 5px; stroke-linecap: round; stroke: rgb(55, 107, 96);" points="331.99 372.014 351.362 355.62 340.232 341.08 364.804 372.937"></polyline>
  <path style="fill: none; stroke-width: 5px; stroke-linecap: round; stroke-linejoin: round; stroke: rgb(55, 107, 96);" d="M 23.969 374.65 H 48.95 A 26.9 26.9 0 0 1 75.85 401.55 V 472.603 A 2 2 0 0 1 73.85 474.603 H 48.869 A 26.9 26.9 0 0 1 21.969 447.703 V 376.65 A 2 2 0 0 1 23.969 374.65 Z" bx:shape="rect 21.969 374.65 53.881 99.953 2 26.9 2 26.9 1@4a2dbc29"></path>
  <line style="fill: none; stroke-linejoin: round; stroke-linecap: round; stroke-width: 4px; stroke: rgb(55, 107, 96);" x1="30.42" y1="382.712" x2="40.627" y2="382.712"></line>
  <path style="fill: none; stroke-linejoin: round; stroke-linecap: round; stroke-width: 4px; stroke: rgb(55, 107, 96);" d="M 52.181 383.239 C 56.327 383.117 61.462 385.717 63.051 390.036"></path>
  <line style="fill: none; stroke-linejoin: round; stroke-linecap: round; stroke-width: 4px; stroke: rgb(55, 107, 96);" x1="66.965" y1="401.014" x2="67.051" y2="415.324"></line>
  <ellipse style="stroke-width: 3px; fill: none; stroke: rgb(55, 107, 96);" cx="22.186" cy="475.898" rx="6.855" ry="7.192"></ellipse>
  <rect style="stroke-linecap: round; stroke-linejoin: round; stroke-width: 3px; stroke: rgb(55, 107, 96); fill: rgb(55, 107, 96);" x="61.804" y="475.06" width="11.791" height="8.547" rx="2" ry="2"></rect>
  <path style="fill: none; stroke-linecap: round; stroke-linejoin: round; stroke-width: 7px; stroke: rgb(55, 107, 96);" d="M 30.817 374.274 L 30.602 306.736 C 32.85 246.637 110.848 251.51 108.669 306.787 L 108.821 432.406"></path>
  <polygon style="fill: none; stroke-linecap: round; stroke-linejoin: round; stroke-width: 3px; stroke: rgb(55, 107, 96);" points="101.254 434.764 115.95 434.35 116.296 461.007 132.623 461.008 132.382 474.303 86.767 474.427 87.238 461.515 101.673 461.398"></polygon>
  <path style="stroke-width: 3px; stroke-linejoin: round; stroke-linecap: round; stroke: rgb(55, 107, 96); fill: rgb(55, 107, 96);" d="M 95.203 468.135 H 124.709 A 2 2 0 0 1 126.709 470.135 V 473.808 H 93.203 V 470.135 A 2 2 0 0 1 95.203 468.135 Z" bx:shape="rect 93.203 468.135 33.506 5.673 2 2 0 0 1@420a8bb5"></path>
  <rect style="stroke-linecap: round; stroke-linejoin: round; fill: none; stroke: rgb(55, 107, 96); stroke-width: 5px;" x="57.324" y="86.739" width="130.219" height="118.739" rx="2" ry="2"></rect>
  <polygon style="fill: none; stroke-linecap: round; stroke-linejoin: round; stroke: rgb(55, 107, 96); stroke-width: 5px;" points="39.645 87.191 208.893 86.7 123.892 7.264"></polygon>
  <rect x="103.034" y="150.542" width="36.653" height="55.724" style="stroke-linecap: round; stroke-linejoin: round; fill: none; stroke: rgb(55, 107, 96); stroke-width: 5px;"></rect>
  <rect style="stroke-linecap: round; stroke-linejoin: round; fill: none; stroke: rgb(55, 107, 96); stroke-width: 5px;" x="71.315" y="106.234" width="28.805" height="29.363" rx="2" ry="2"></rect>
  <rect x="143.006" y="106.513" width="30.218" height="30.413" style="stroke-linecap: round; stroke-linejoin: round; fill: none; stroke: rgb(55, 107, 96); stroke-width: 5px;"></rect>
  <polygon style="fill: none; stroke-linejoin: round; stroke-linecap: round; stroke: rgb(55, 107, 96); stroke-width: 5px;" points="88.24 41.5 87.901 17.26 63.256 17.988 63.157 64.855"></polygon>
  <path style="fill: none; stroke-width: 5px; stroke-linejoin: round; stroke-linecap: round; stroke: rgb(55, 107, 96);" d="M 236.791 231.513 C 212.899 255.509 242.263 275.781 262.2 259.32 L 402.345 149.927 C 425.458 177.822 475.563 127.168 458.712 100.582 L 414.319 132.814 L 398.436 111.487 L 440.757 76.96 C 423.389 52.461 359.848 83.484 378.21 116.845 L 236.791 231.513 Z" transform="matrix(0.984655, -0.174513, 0.174513, 0.984655, -23.802808, 62.762138)"></path>
  <path style="fill: none; stroke-linejoin: round; stroke-linecap: round; stroke: rgb(55, 107, 96); stroke-width: 5px;" d="M 338.718 216.372 L 375.208 186.921 L 424.555 246.818 C 443.607 273.092 407.992 299.683 384.828 275.107 L 338.718 216.372 Z" transform="matrix(0.984655, -0.174513, 0.174513, 0.984655, -35.267091, 70.692269)"></path>
  <polygon style="fill: none; stroke-linejoin: round; stroke-linecap: round; stroke: rgb(55, 107, 96); stroke-width: 5px;" points="307.627 168.913 295.984 178.131 251.948 117.407 236.225 112.813 231.86 89.284 244.33 79.953 267.474 94.492 264.449 109.146" transform="matrix(0.984655, -0.174513, 0.174513, 0.984655, -18.380286, 49.05402)"></polygon>
</svg>