<svg viewBox="0 0 500 500" xmlns="http://www.w3.org/2000/svg">
  <defs></defs>
  <path style="fill: none; stroke-linecap: round; stroke-linejoin: round; stroke: rgb(47, 93, 98); stroke-width: 25px;" d="M 286.784 263.617 L 371.629 264.037 C 389.426 266.177 401.144 274.278 419.785 284.843 C 491.666 325.583 491.181 425.561 418.669 465.235 C 346.156 504.91 256.135 454.285 256.629 374.037 L 256.629 124.037 C 258.681 42.729 350.013 -7.241 422.578 33.566 C 495.143 74.375 494.519 175.357 421.453 215.334 C 407.631 222.896 393.221 234.364 371.629 234.037 L 286.367 234.037"></path>
  <path style="stroke: rgb(47, 93, 98); stroke-linecap: round; stroke-linejoin: round; fill: none; stroke-width: 25px;" d="M 226.707 261.85 L 124.093 262.383 C 43.661 261.68 -6.299 353.359 33.325 425.391 C 72.949 497.421 167.052 499.761 210.096 428.689 C 220.259 411.908 226.924 391.911 226.613 372.141 L 226.843 291.569"></path>
  <path style="fill: none; stroke-linecap: round; stroke: rgb(47, 93, 98); stroke-linejoin: round; stroke-width: 25px;" d="M 277.385 20.925 C 244.539 51.141 230.096 86.004 228.324 103.282 C 228.54 115.089 226.73 211.818 226.88 231.753 L 125.889 232.638 C 67.974 232.516 22.503 186.433 27.322 132.742 L 28.21 24.625"></path>
</svg>