<svg viewBox="0 0 500 500" xmlns="http://www.w3.org/2000/svg">
  <defs></defs>
  <ellipse style="fill: rgb(47, 93, 98);" cx="250" cy="250" rx="250" ry="250"></ellipse>
  <path style="fill: none; stroke-linecap: round; stroke-linejoin: round; stroke: rgb(194, 223, 215); stroke-width: 15px;" d="M 275.422 258.924 L 331.099 259.196 C 342.776 260.587 350.467 265.85 362.699 272.716 C 409.868 299.189 409.55 364.154 361.967 389.935 C 314.383 415.716 255.31 382.819 255.634 330.674 L 255.634 168.223 C 256.981 115.39 316.914 82.919 364.532 109.435 C 412.149 135.955 411.74 201.571 363.794 227.549 C 354.722 232.463 345.266 239.915 331.099 239.701 L 275.149 239.701"></path>
  <path style="stroke-linecap: round; stroke-linejoin: round; fill: none; stroke: rgb(194, 223, 215); stroke-width: 15px;" d="M 235.999 257.774 L 168.662 258.121 C 115.882 257.665 83.098 317.238 109.099 364.044 C 135.102 410.85 196.853 412.37 225.098 366.187 C 231.768 355.284 236.142 342.288 235.937 329.442 L 236.088 277.087"></path>
  <path style="fill: none; stroke-linecap: round; stroke-linejoin: round; stroke: rgb(194, 223, 215); stroke-width: 15px;" d="M 269.255 101.221 C 247.7 120.856 238.223 143.509 237.06 154.738 C 237.202 162.409 236.014 225.265 236.113 238.218 L 169.841 238.793 C 131.837 238.714 101.998 208.769 105.161 173.881 L 105.743 103.627"></path>
</svg>